<?xml version="1.0" encoding="UTF-8"?>
<svg id="Capa_2" data-name="Capa 2" xmlns="http://www.w3.org/2000/svg" viewBox="0 0 115.23 36.45">
  <g id="Capa_1-2" data-name="Capa 1">
    <g>
      <path d="M12.49,0c5.19,0,9.15,1.03,11.79,3.54,2.02,1.94,3.59,4.91,3.59,8.78,0,4.99-1.98,8.62-5.15,11.05-3.05,2.35-7.3,3.42-12.41,3.42H0v-1.32c3.38-.25,3.75-.54,3.75-4.04V5.36C3.75,1.81,3.38,1.61.37,1.32V0h12.12ZM8.58,21.15c0,3.01.91,3.96,3.79,3.96,6.35,0,10.06-4.95,10.06-12.04,0-4.04-1.32-7.38-3.75-9.28-1.73-1.53-4-2.23-6.8-2.23-1.61,0-2.52.25-2.84.54-.33.33-.45.95-.45,2.31v16.74Z"/>
      <path d="M38.22,12.53c1.4-2.43,3.09-4.37,4.78-4.37,1.57,0,2.64,1.15,2.64,2.39s-.78,2.27-1.77,2.64c-.54.25-.95.12-1.2-.12-.7-.58-1.2-.82-1.85-.82-.91,0-1.9.74-2.68,2.64v7.63c0,2.6.21,2.8,3.38,3.05v1.24h-10.64v-1.24c2.35-.25,2.72-.45,2.72-3.05v-8.82c0-2.35-.25-2.51-2.35-2.93v-1.07c2.31-.29,4.54-.78,6.89-1.61v4.45h.08Z"/>
      <path d="M65.51,17.4c0,6.64-4.78,9.9-9.36,9.9-6.18,0-9.44-4.62-9.44-9.15,0-6.68,5.24-9.98,9.61-9.98,5.48,0,9.19,4.25,9.19,9.24ZM51.86,16.7c0,5.11,1.85,9.07,4.74,9.07,1.94,0,3.75-1.32,3.75-7.26,0-5.36-1.65-8.82-4.66-8.82-1.98,0-3.83,2.31-3.83,7.01Z"/>
      <path d="M77.76,8.91c.78-.5,1.53-.74,2.19-.74,4.74,0,7.38,3.92,7.38,7.92,0,6.1-4.78,10.06-10.1,11.21-1.11,0-2.06-.33-2.68-.58v5.32c0,2.64.25,2.89,3.42,3.17v1.24h-10.84v-1.24c2.64-.25,2.89-.54,2.89-3.01V13.65c0-2.43-.29-2.6-2.52-2.89v-1.15c2.06-.33,4.62-1.07,7.05-1.86v3.09l3.22-1.94ZM74.54,23.62c.82.83,2.39,1.61,3.55,1.61,2.68,0,4.54-2.84,4.54-7.26,0-4.87-2.56-6.93-4.95-6.93-1.11,0-2.27.58-3.13,1.28v11.3Z"/>
      <path d="M90.21,26.8v-1.32c3.17-.29,3.55-.54,3.55-4.04V5.36c0-3.5-.37-3.75-3.55-4.04V0h11.83v1.32c-3.17.29-3.5.54-3.5,4.04v16.08c0,3.5.33,3.75,3.5,4.04v1.32h-11.83Z"/>
      <path d="M112.1,26.8c-.74.33-1.36.5-1.69.5-2.97,0-4.7-1.53-4.7-5.11v-11.67h-2.68l-.21-.45,1.15-1.4h1.73v-3.01l3.96-3.05.58.21v5.86h4.25c.45.45.37,1.53-.25,1.85h-4v10.31c0,3.26,1.44,3.71,2.35,3.71.82,0,1.61-.25,2.27-.54l.37,1.28-3.13,1.53Z"/>
    </g>
  </g>
</svg>