<?xml version="1.0" encoding="UTF-8"?>
<svg id="Capa_2" xmlns="http://www.w3.org/2000/svg" version="1.1" viewBox="0 0 42.9 42.9">
  <!-- Generator: Adobe Illustrator 29.0.0, SVG Export Plug-In . SVG Version: 2.1.0 Build 186)  -->
  <defs>
    <style>
      .st0 {
        fill: #fff;
      }
    </style>
  </defs>
  <rect width="42.9" height="42.9"/>
  <g>
    <path class="st0" d="M14.9,9.4c4.7,0,8.2.9,10.6,3.2,1.8,1.7,3.2,4.4,3.2,7.9s-1.8,7.7-4.6,9.9c-2.7,2.1-6.5,3.1-11.1,3.1H3.7v-1.2c3-.2,3.4-.5,3.4-3.6v-14.4c0-3.2-.3-3.4-3-3.6v-1.2h10.9ZM11.4,28.4c0,2.7.8,3.6,3.4,3.6,5.7,0,9-4.4,9-10.8s-1.2-6.6-3.4-8.3c-1.6-1.4-3.6-2-6.1-2s-2.3.2-2.5.5c-.3.3-.4.9-.4,2.1v15h0Z"/>
    <path class="st0" d="M28.7,33.5v-1.2c2.8-.3,3.2-.5,3.2-3.6v-14.4c0-3.1-.3-3.4-3.2-3.6v-1.2h10.6v1.2c-2.8.3-3.1.5-3.1,3.6v14.4c0,3.1.3,3.4,3.1,3.6v1.2h-10.6Z"/>
  </g>
</svg>