<?xml version="1.0" encoding="UTF-8"?>
<svg id="Capa_2" data-name="Capa 2" xmlns="http://www.w3.org/2000/svg" viewBox="0 0 383.04 383.18">
  <g id="Capa_1-2" data-name="Capa 1">
    <path d="M383.04,179.51v23.94c-1.15,4.31-1.01,9.24-1.6,13.74-11.16,84.28-79.86,153.22-164.3,164.24-4.5.59-9.43.46-13.74,1.6-7.92-.34-16.06.46-23.95,0C11.91,373.24-62.75,163.03,63.02,49.3c118.7-107.35,310.74-28.27,320.02,130.22ZM242.31,124.89v-37.04c-.66-1.07-1.49-1.03-2.58-1.16-10.63-1.25-35.73-.55-46.08,1.9-18.15,4.29-32.18,22.37-32.18,41.16v29.56h-21.71v38.91h21.71v110.74h46.41v-110.74h31.44l3.74-38.91h-35.18v-26.56c0-3.62,6.09-7.86,9.36-7.86h25.08Z"/>
  </g>
</svg>