<?xml version="1.0" encoding="UTF-8"?>
<svg id="Capa_2" data-name="Capa 2" xmlns="http://www.w3.org/2000/svg" viewBox="0 0 511.14 510.72">
  <g id="Capa_1-2" data-name="Capa 1">
    <g>
      <path d="M511.14,239.16v31.93c-1.54,5.75-1.34,12.32-2.14,18.31-14.59,109.99-101.85,199.76-211.23,217.84l-26.16,3.28c-10.56-.45-21.41.62-31.94,0C30.4,498.29-76.55,245.81,63.04,87.04,213.59-84.19,497.92,13.35,511.14,239.16ZM205.53,108.76c-68.81,3.01-94.09,30.62-96.65,98.93-1.13,30.04-1.13,64.82,0,94.86,2.62,69.91,29.37,96.65,99.31,99.27,30.05,1.13,64.85,1.13,94.9,0,69.84-2.62,96.69-29.41,99.31-99.27,1.13-30.04,1.13-64.82,0-94.86-2.62-69.96-29.42-96.65-99.31-99.27-30.98-1.16-66.58-1.02-97.56.33Z"/>
      <path d="M253.46,134.67c19.18-.03,41.64-.37,60.61.69,71.45,4.01,61.01,59.35,61.3,113.32.11,21.06,1.28,43.55.08,64.85-3.99,70.98-58.69,60.96-112.36,61.27-21.43.12-44.22,1.3-65.87.08-70.71-3.97-60.99-57.65-61.3-111.32-.13-21.81-1.32-44.86-.08-66.84,4.03-71.67,62.8-61.95,117.63-62.05ZM330.23,159.59c-4.18.7-9.45,4.77-11.56,8.38-9.15,15.62,9.61,33.61,24.76,23.75,16.17-10.53,6.6-35.46-13.19-32.13ZM244.44,180.58c-57.38,6.48-83.66,78.93-46.66,122.91,38.48,45.73,114.24,30.23,130.21-27.41,15.02-54.21-28.53-101.7-83.55-95.49Z"/>
      <path d="M249.43,206.52c66.12-7.96,74.76,92.1,10.68,97.48-63.8,5.35-72.71-90.01-10.68-97.48Z"/>
    </g>
  </g>
</svg>