<?xml version="1.0" encoding="UTF-8"?>
<svg id="Capa_2" data-name="Capa 2" xmlns="http://www.w3.org/2000/svg" viewBox="0 0 95.71 142.13">
  <g id="Capa_1-2" data-name="Capa 1">
    <path d="M31.87,100.06v-8.82c0-6.16.71-11.22,2.12-15.19,1.42-3.97,3.66-7.35,6.75-10.14,3.08-2.8,7.21-5.51,12.38-8.13,4.53-2.34,8.07-4.51,10.62-6.53,2.55-2.02,4.36-4.12,5.42-6.32,1.06-2.19,1.59-4.78,1.59-7.75,0-4.74-1.93-8.69-5.79-11.84-3.86-3.15-9.15-4.73-15.88-4.73-7.79,0-13.76,1.66-17.9,4.99-4.14,3.33-6.6,7.83-7.38,13.49H0c.85-11.83,5.35-21.3,13.49-28.42C21.63,3.56,33.21,0,48.23,0c9.77,0,18.22,1.66,25.33,4.99,7.12,3.33,12.59,7.81,16.41,13.44,3.82,5.63,5.74,11.95,5.74,18.96,0,7.37-1.86,13.58-5.58,18.64-3.72,5.06-9.54,9.61-17.47,13.65-4.67,2.41-8.32,4.66-10.94,6.75-2.62,2.09-4.46,4.43-5.52,7.01-1.06,2.59-1.59,5.86-1.59,9.83v6.8h-22.73ZM43.76,142.13c-4.75,0-8.6-1.47-11.58-4.41-2.97-2.94-4.46-6.53-4.46-10.78s1.49-8.09,4.46-11.1c2.97-3.01,6.8-4.51,11.47-4.51s8.69,1.49,11.84,4.46c3.15,2.97,4.73,6.66,4.73,11.05s-1.58,7.86-4.73,10.83c-3.15,2.97-7.06,4.46-11.74,4.46Z"/>
  </g>
</svg>